<svg class="animated" id="freepik_stories-brain-organ" xmlns="http://www.w3.org/2000/svg" viewBox="0 0 500 500" version="1.1" xmlns:xlink="http://www.w3.org/1999/xlink" xmlns:svgjs="http://svgjs.com/svgjs"><style>svg#freepik_stories-brain-organ:not(.animated) .animable {opacity: 0;}svg#freepik_stories-brain-organ.animated #freepik--background-simple--inject-138 {animation: 1s 1 forwards cubic-bezier(.36,-0.01,.5,1.38) slideUp,3s Infinite  linear floating;animation-delay: 0s,1s;}svg#freepik_stories-brain-organ.animated #freepik--Lines--inject-138 {animation: 1s 1 forwards cubic-bezier(.36,-0.01,.5,1.38) slideUp,3s Infinite  linear floating;animation-delay: 0s,1s;}svg#freepik_stories-brain-organ.animated #freepik--Brain--inject-138 {animation: 1s 1 forwards cubic-bezier(.36,-0.01,.5,1.38) slideUp,3s Infinite  linear floating;animation-delay: 0s,1s;}            @keyframes slideUp {                0% {                    opacity: 0;                    transform: translateY(30px);                }                100% {                    opacity: 1;                    transform: inherit;                }            }                    @keyframes floating {                0% {                    opacity: 1;                    transform: translateY(0px);                }                50% {                    transform: translateY(-10px);                }                100% {                    opacity: 1;                    transform: translateY(0px);                }            }        </style><g id="freepik--background-simple--inject-138" class="animable" style="transform-origin: 260.635px 251.305px;"><path d="M273.59,16.87c43.48,8.75,92.89,32.93,113.09,74.87,30.53,63.36,85.44,62.72,99.55,182.71a244,244,0,0,1,.7,52.75,205.25,205.25,0,0,1-4.18,25.52C465.69,426.87,409.44,473.13,345,486.55c-84.78,17.66-135-35.42-165.08-70.34S50,349.4,35.2,231.55a235.7,235.7,0,0,1-.75-54.21c4.36-41.15,21.55-85,52.33-113.85q3.47-3.24,7.15-6.28C141.83,17.56,214.31,4.94,273.59,16.87Z" style="fill: rgb(0, 255, 136); transform-origin: 260.635px 251.305px;" id="elmspdpuot678" class="animable"></path><g id="el0gwclt8ob88j"><path d="M273.59,16.87c43.48,8.75,92.89,32.93,113.09,74.87,30.53,63.36,85.44,62.72,99.55,182.71a244,244,0,0,1,.7,52.75,205.25,205.25,0,0,1-4.18,25.52C465.69,426.87,409.44,473.13,345,486.55c-84.78,17.66-135-35.42-165.08-70.34S50,349.4,35.2,231.55a235.7,235.7,0,0,1-.75-54.21c4.36-41.15,21.55-85,52.33-113.85q3.47-3.24,7.15-6.28C141.83,17.56,214.31,4.94,273.59,16.87Z" style="fill: rgb(255, 255, 255); opacity: 0.7; transform-origin: 260.635px 251.305px;" class="animable"></path></g></g><g id="freepik--Lines--inject-138" class="animable animator-active" style="transform-origin: 242.175px 242.285px;"><line x1="243.2" y1="65.05" x2="243.2" y2="75.82" style="fill: none; stroke: rgb(38, 50, 56); stroke-miterlimit: 10; stroke-width: 2px; transform-origin: 243.2px 70.435px;" id="el0jkc4isgcr6" class="animable"></line><line x1="243.2" y1="28.75" x2="243.2" y2="58.11" style="fill: none; stroke: rgb(38, 50, 56); stroke-miterlimit: 10; stroke-width: 2px; transform-origin: 243.2px 43.43px;" id="elkoswm4x77g" class="animable"></line><line x1="129.26" y1="50.58" x2="151.78" y2="77.87" style="fill: none; stroke: rgb(38, 50, 56); stroke-miterlimit: 10; stroke-width: 2px; transform-origin: 140.52px 64.225px;" id="el78w3habx4zd" class="animable"></line><line x1="16.7" y1="124.26" x2="56.27" y2="139.95" style="fill: none; stroke: rgb(38, 50, 56); stroke-miterlimit: 10; stroke-width: 2px; transform-origin: 36.485px 132.105px;" id="ell5qnp7zfki" class="animable"></line><line x1="38.46" y1="211.59" x2="50.81" y2="211.59" style="fill: none; stroke: rgb(38, 50, 56); stroke-miterlimit: 10; stroke-width: 2px; transform-origin: 44.635px 211.59px;" id="el02xn0o2dt7wq" class="animable"></line><line x1="11.24" y1="211.59" x2="30.7" y2="211.59" style="fill: none; stroke: rgb(38, 50, 56); stroke-miterlimit: 10; stroke-width: 2px; transform-origin: 20.97px 211.59px;" id="el6833p5ty6sh" class="animable"></line><line x1="355.08" y1="50.58" x2="332.57" y2="77.87" style="fill: none; stroke: rgb(38, 50, 56); stroke-miterlimit: 10; stroke-width: 2px; transform-origin: 343.825px 64.225px;" id="elf3212emcf6d" class="animable"></line><line x1="449.14" y1="131.59" x2="428.08" y2="139.95" style="fill: none; stroke: rgb(38, 50, 56); stroke-miterlimit: 10; stroke-width: 2px; transform-origin: 438.61px 135.77px;" id="ela2a1m51kmlc" class="animable"></line><line x1="467.65" y1="124.26" x2="456.89" y2="128.53" style="fill: none; stroke: rgb(38, 50, 56); stroke-miterlimit: 10; stroke-width: 2px; transform-origin: 462.27px 126.395px;" id="eljak4dwi425c" class="animable"></line><line x1="243.2" y1="455.82" x2="243.2" y2="408.75" style="fill: none; stroke: rgb(38, 50, 56); stroke-miterlimit: 10; stroke-width: 2px; transform-origin: 243.2px 432.285px;" id="elglhmifbahkf" class="animable"></line><line x1="142.89" y1="417.48" x2="151.78" y2="406.7" style="fill: none; stroke: rgb(38, 50, 56); stroke-miterlimit: 10; stroke-width: 2px; transform-origin: 147.335px 412.09px;" id="ele1hs0mf8bmg" class="animable"></line><line x1="129.26" y1="433.99" x2="137.88" y2="423.55" style="fill: none; stroke: rgb(38, 50, 56); stroke-miterlimit: 10; stroke-width: 2px; transform-origin: 133.57px 428.77px;" id="el43qcjtzds83" class="animable"></line><line x1="16.7" y1="360.31" x2="56.27" y2="344.62" style="fill: none; stroke: rgb(38, 50, 56); stroke-miterlimit: 10; stroke-width: 2px; transform-origin: 36.485px 352.465px;" id="el7p0mkwme8tc" class="animable"></line><line x1="345.92" y1="422.89" x2="332.57" y2="406.7" style="fill: none; stroke: rgb(38, 50, 56); stroke-miterlimit: 10; stroke-width: 2px; transform-origin: 339.245px 414.795px;" id="elan3qo32xemf" class="animable"></line><line x1="355.08" y1="433.99" x2="349.23" y2="426.89" style="fill: none; stroke: rgb(38, 50, 56); stroke-miterlimit: 10; stroke-width: 2px; transform-origin: 352.155px 430.44px;" id="elldtlulv3if" class="animable"></line><line x1="467.65" y1="360.31" x2="428.08" y2="344.62" style="fill: none; stroke: rgb(38, 50, 56); stroke-miterlimit: 10; stroke-width: 2px; transform-origin: 447.865px 352.465px;" id="elgiwjin62r0o" class="animable"></line><line x1="473.11" y1="211.59" x2="433.54" y2="211.59" style="fill: none; stroke: rgb(38, 50, 56); stroke-miterlimit: 10; stroke-width: 2px; transform-origin: 453.325px 211.59px;" id="elhz866mxxnn" class="animable"></line></g><g id="freepik--Brain--inject-138" class="animable" style="transform-origin: 241.12px 253.659px;"><path d="M279.65,412.8s0-9.84-3.18-16.5S264.31,377.49,258.82,370s-4.06-19.1-4.06-19.1-9.26-2.6-20.83-17.65S220,297.91,220,297.91l45.14-9s14-17.77,21.22-2.43,5.4,72.46,7.72,82.3S297,409.9,297,409.9" style="fill: rgb(38, 50, 56); stroke: rgb(38, 50, 56); stroke-miterlimit: 10; transform-origin: 258.5px 346.52px;" id="el1tfsgij48wa" class="animable"></path><path d="M260,282.87s2.61,14.18,4.34,24,7.24,18.8,7.24,18.8a42.56,42.56,0,0,0,.29,21.13c3.18,10.71,6.36,31.83,21.7,33.28s21.7-8.1,21.7-8.1,16.5,6.36,29.52-3.48,21.7-28.36,17.94-41.67-8.39-19.39-28.07-26.62-47.46-.87-51.8,2S275,312.67,275,312.67l-6.94-18.52-2.9-12.44Z" style="fill: rgb(112, 112, 112); stroke: rgb(38, 50, 56); stroke-miterlimit: 10; transform-origin: 311.806px 330.97px;" id="elqxxcbtqy69" class="animable"></path><path d="M67,194.32s1.15,27.2,16.2,43.11,32.12,24,44.57,25.47a210.65,210.65,0,0,1,21.12,3.47s5.79,37.62,27.2,45.15,24,7.23,32.7,1.73,15.34-10.42,15.34-10.42-39.36-3.76-50.06-26a109.53,109.53,0,0,0-47.46-48.91c-18.81-9.83-52.09-25.46-53.25-27.78S67,194.32,67,194.32Z" style="fill: rgb(38, 50, 56); stroke: rgb(38, 50, 56); stroke-miterlimit: 10; transform-origin: 145.565px 255.803px;" id="elabdz9iifa1d" class="animable"></path><path d="M92.71,142.52s-4,4.63-6.65,8.1A31,31,0,0,0,82.29,157S71.59,163.93,69,171.75s-4,12.73-2.89,20.54a70.46,70.46,0,0,0,4,14.76s.29,7.52,12.44,12.15,47.75,18.23,49.49,19.68,14.76,10.42,14.76,10.42l2.89,14.76s1.74,18.23,4.63,23.15,7.52,17.94,16.78,22.86S192,314.7,199.2,313s12.16-4,28.65-9.55,22.57-6.94,23.73-7.23,40.22,8.1,50.93,6.07,15.05-6.07,15.05-6.07,5.5,10.42,13.6,15.34,29.81,15.91,32.41,17.94,5.79,8.39,13.31,7.23,11.58-11,12.45-12.15S400.9,310.36,404.08,304a57.11,57.11,0,0,0,4.34-11.28s9.84-10.13,7.82-27.21-4.34-31.54-8.68-44-6.66-17.08-6.66-17.08S398,177,384.7,164.22s-21.13-16.49-21.13-16.49-9.26-14.18-22-19.39-31.83-20-40.8-23.44S286.6,104,286.6,104s-24.6-7.81-42.83-7.81H225.54s-17.94-3.76-36.18,0-37.33.87-50.64,6.65-27.49,19.39-27.49,19.39S96.18,131.81,92.71,142.52Z" style="fill: rgb(0, 255, 136); transform-origin: 241.12px 215.695px;" id="elg2pd0fy907d" class="animable"></path><g id="eljtf8z3y9jwk"><path d="M407.56,221.52c-4.34-12.45-6.66-17.08-6.66-17.08S398,177,384.7,164.22A138.93,138.93,0,0,0,370,151.81c-13.23,157.87-182.94,89.63-228.93,93.5,3.08,2.15,5.76,4,5.76,4l2.89,14.76s1.74,18.23,4.63,23.15,7.52,17.94,16.78,22.86S192,314.7,199.2,313s12.16-4,28.65-9.55,22.57-6.94,23.73-7.23,40.22,8.1,50.93,6.07,15.05-6.07,15.05-6.07,5.5,10.42,13.6,15.34,29.81,15.91,32.41,17.94,5.79,8.39,13.31,7.23,11.58-11,12.45-12.15S400.9,310.36,404.08,304a57.11,57.11,0,0,0,4.34-11.28s9.84-10.13,7.82-27.21S411.9,234,407.56,221.52Z" style="opacity: 0.2; transform-origin: 278.792px 244.34px;" class="animable"></path></g><g id="elok8gknuecmq"><path d="M226.61,159.63s-2.36-8.07-8.75,7.73-9.07,28.58-16.47,34.63-23.53,3.7-25.55,7.06a8.54,8.54,0,0,0-1.34,6s8.06-.67,11.76-.67,15.47,1.34,15.47,1.34l8.74-3.36s-1.35-5-.67-6,6-4,7.73-12.77,2.69-23.2,3.7-25.22S226.61,159.63,226.61,159.63Z" style="opacity: 0.2; transform-origin: 200.508px 186.645px;" class="animable"></path></g><g id="elr0jdrhxumpc"><path d="M205.43,241.32s10.42-6.38,16.8-6.38,18.83,2.35,31.27-3.37,28.24-17.48,28.24-17.48,17.48,5.38,28.24-4.7,10.42-27.57,16.81-28.58,4.71,18.83.33,24.21-11.76,17.81-16.8,19.83-13.12,4.37-19.5,4.37a46.14,46.14,0,0,0-13.11,2.35L263.92,239l-16.47,3s-15.47,4.7-18.83,4.7S208.12,240.31,205.43,241.32Z" style="opacity: 0.2; transform-origin: 268.22px 213.736px;" class="animable"></path></g><g id="el2vydul5kzh"><path d="M296.2,114.25s.67,9.07-4.37,15.12-2.69,8.07-6.73,12.11-7.73,3.69-11.76,8.4-5,7.73-6.73,9.08-9.41-3.7-15.46,6.39,2,15.8-2.36,26.55S243.08,206,243.08,206l17.14-4.37s-5-7.73-5.71-15.12-1.35-16.14,3.36-20.18,9.08-4,9.08-4,6.39-9.41,9.75-11.77,18.56-9.58,20.5-10.42a9.72,9.72,0,0,1,4-.67v-15.8L298.89,119Z" style="opacity: 0.2; transform-origin: 272.14px 160.125px;" class="animable"></path></g><g id="elqkowpe26spe"><path d="M316.37,122.65s6.05,4.37,8.4,13.78-1,10.09-1,10.09l7.06,2.69a42.77,42.77,0,0,0-3-16.47C324.44,125,316.37,122.65,316.37,122.65Z" style="opacity: 0.2; transform-origin: 323.603px 135.93px;" class="animable"></path></g><g id="el2jlu8zmh5w7"><path d="M225.26,110.88s-6.39,7.4-11.43,12.11-15.8,10.75-21.52,8.4-7.39-5-7.39-5,9.41,9.75,7.73,15.46-7.4,18.16-17.14,20.51-25.22-2.35-33.29,0-11.76,14.79-12.44,16.47-4.7-.33-10.08-1.68a26.69,26.69,0,0,0-8.41-1s6.06,7.4,4.71,11.43-4.37,4.71-4.37,4.71a95.24,95.24,0,0,1,9.75-3.36c3-.67,8.4,1,8.4,1s8.41-15.8,14.46-16.81a17.9,17.9,0,0,1,11.09,2s11.1-7.74,15.13-7.74,11.43,6.39,11.43,6.39,2.36-4,4.37-5a26.59,26.59,0,0,1,5.05-1.68s.67-17.49,5.37-23.87,22.87-15.8,22.87-15.8S214.84,123.32,225.26,110.88Z" style="opacity: 0.2; transform-origin: 168.275px 151.585px;" class="animable"></path></g><g id="el1i33zkghne8"><path d="M175.84,191.23S169.79,205,165.42,206.7s-7.73-3.7-7.73-3.7,1,9.41-2.69,10.76-9.42-2.69-9.42-2.69-.33,2.69-4,3.36-14.46-5.38-19.83-10.76-6.73-9.41-6.73-9.41-3.7,5-1.68,8.74,13.11,10.42,16.81,12.1,24.21,10.09,24.21,10.09,6.72-5.38,9.74-6.73,7.74-3,7.74-3-1.35-1.68-.68-5.72S175.84,191.23,175.84,191.23Z" style="opacity: 0.2; transform-origin: 144.288px 208.21px;" class="animable"></path></g><g id="elgxwfdutcks"><path d="M154.33,228.88a52.27,52.27,0,0,1-7.74,3.7c-5,2-31.93-10.08-45-16.47S75.66,195.94,74.31,190.9s-1-7.74-1-7.74-4,18.49-.33,25.89,25.55,14.12,33.62,17.48,32,18.73,34.48,18.78,7.88,5.43,7.88,5.43.88-10.31,1.34-13.45S154.33,228.88,154.33,228.88Z" style="opacity: 0.2; transform-origin: 112.88px 216.95px;" class="animable"></path></g><g id="elgx8wrgcrjmj"><path d="M347,200.65s9.08,3.69,17.48,1.34,13.45-11.43,16.81-8.4,8.41,16.8,8.07,30.92-2,16.14-.67,18.49,5.71,3.7,2,4a21.25,21.25,0,0,1-7.06-.67s2-12.11-1.34-22.86-2.1-16.37-6.05-18.49-2.36-.68-13.45,2S345,205.74,347,200.65Z" style="opacity: 0.2; transform-origin: 369.398px 220.017px;" class="animable"></path></g><g id="elx5o67h9hpp7"><path d="M339.23,224.18s-.37,13.45,4.37,17.14,7.73-1.34,7.06.34-7.73,12.44-4.71,19.83,21.85,9.75,21.85,9.75,15.8,4,22.19,9.75,5.72,14.8,5.72,14.8l-16.81-8.07s-.68-7.4-6-7.4-10.76.34-17.49-1.34-13-4.43-14.79-10.09-4-10.08-5.71-10.42a49.15,49.15,0,0,1-5.72-2s-11.76-4-13.78-4.7-10.76-1.35-10.76-1.35,16.47-3,21.85-7.4S339.23,224.18,339.23,224.18Z" style="opacity: 0.2; transform-origin: 350.19px 259.985px;" class="animable"></path></g><g id="el7h61zbfuop4"><path d="M398.73,242.67s2.36,10.42-7.06,12.77-23.19,1-26.56-3,4.71-21.85,4.71-21.85-3-.34-5.71-5.38a118.82,118.82,0,0,1-5.38-12.44s-1.68,7.39-1.68,10.76,3,32.94,3,32.94,10.09,1.35,17.15,5.38,13.44,7.73,13.44,7.73,2-6.05,4-8.07S403.1,251.07,398.73,242.67Z" style="opacity: 0.2; transform-origin: 378.633px 241.175px;" class="animable"></path></g><g id="elll09tvny7ik"><path d="M180.55,249.06s-.34,17.81,13.11,19.16,23.2-6.39,31.6-6.39,8.74,3.7,14.46,1.68,13.78-7.39,22.18-6.05,19.17,7.73,23.54,7.73,9.07-2,13.45-1.34,17.48,4.37,19.83,3.36-.67,3.7-4.37,5a53.91,53.91,0,0,1-7.06,2s-3.36-4.37-11.77-4.37-22.52-1.68-27.23-2.35-10.76-4.37-14.45-3-20.17,8.4-23.54,8.4-15.46-4-24.87-.33S191,278,190.3,280.66s4.37,9.07,8.4,10.08,8.74,1.35,22.19-3.7,21.18-12.1,39-8.4a358.48,358.48,0,0,1,39.67,11.09c5,1.69,13.11,3.7,18.15,2s7.06-4.71,7.06-4.71,1,5.38-2.35,6.39-7.06,4.37-12.44,3.36-40.77-15.66-50-13.92-24,2.83-24,3.84,28.24-.67,36,3,19.5,7.74,23.53,9.08a81.24,81.24,0,0,0,10.76,2.35s-18.83,1.35-31.94-1.34a108.11,108.11,0,0,0-24.87-2s-42.7,13.45-45.05,13.79-19.5,4.37-30.6-1.68-18.49-18.16-20.5-25.89-5.72-30.26-5.72-30.26.34-9.41,3.36-7.06,6.73,16.14,11.77,26.22,15.8,28.92,22.52,31.61,11.76-.89,8.75-3.7-10.43-14.12-13.12-27.23A67.64,67.64,0,0,1,180.55,249.06Z" style="opacity: 0.2; transform-origin: 236.25px 279.751px;" class="animable"></path></g><g id="eli44qh28slal"><path d="M314,276.29s10.43-8.74,13.79-.34,11.76,28.91,34.29,35.64,29.58,5,27.23-2.36L387,301.84s4.58,6.87,9.75,3.69,11.7-12.82,11.7-12.82-7.67,20.22-11.7,23.92-4,3-7.39,7.91,0,6.55-9.09,8.56-13.51-2.25-16.67-3.64-20.31-7.72-26.36-12.83-17.48-16.47-17.82-17.82a6.4,6.4,0,0,0-1.83-2.63s9.56-2.41,9.23-6.78S314,276.29,314,276.29Z" style="opacity: 0.2; transform-origin: 361.225px 302.966px;" class="animable"></path></g><g id="els006eiv20o"><path d="M338.22,156.94s9.08,6.72,10.08,16.47-5,14.12-7.06,19.17-2.78,11.81,3,13.11l5.81,1.29s-4.8-8.35-1.78-11.71,14.8-11.77,15.47-13.45-3-5.72-.67-8.07,5-1.34,8.74.34S386,182.83,386,182.83s2.69-3.7-8.41-11.43S361.75,166,356,165,338.22,156.94,338.22,156.94Z" style="opacity: 0.2; transform-origin: 362.253px 181.96px;" class="animable"></path></g><g id="el7619gvj5g1a"><path d="M145.58,140.47s12.11-4.71,17.82-3.36,12.78,6,12.78,6l6.72-3s-5.71,8.07-6.05,9.41-9.41-3-15.13-4.37S145.58,140.47,145.58,140.47Z" style="opacity: 0.2; transform-origin: 164.24px 143.32px;" class="animable"></path></g><g id="el2ofxcphanvf"><path d="M111.29,176.1s2.69,8.74-2.35,9.08-14.12-2.35-15.13-6.72,5-12.11,8.07-13.79S115,160,115,160s-3.36-6.39-12.77-2.36-9.08,15.13-12.44,16.14-6-4.71-6-4.71-2.48,4.56-.34,8.74,9,7.74,10.76,8.41,12.6,6.54,17.48,6.05,6.39-5.38,4.71-9.41A19,19,0,0,0,111.29,176.1Z" style="opacity: 0.2; transform-origin: 99.82px 174.303px;" class="animable"></path></g><g id="eljng7fl8py4c"><path d="M201.52,241.17s-4.41-4.42-9.93-3.86-12.68,5.51-18.75,4.41-12.68-5-12.68-5,7.82,11.93,11,12.14S197.66,247.23,201.52,241.17Z" style="opacity: 0.2; transform-origin: 180.84px 242.798px;" class="animable"></path></g><g id="elkre9p63bdj"><path d="M284.24,168.92s3.86,10.48,0,18.2-17.64,11-22.61,8.27-7.12-8.86-7.12-8.86-.66,10.36,5.71,15.12c0,0,12.44-1.85,14.65-1.3a37.11,37.11,0,0,0,6.62.56s3.76-6.16,7.72-12.69,5-9.37,6.06-13.23,1.66-6.07,6.62-8.28l5-2.2s-3.86-5-10.48-1.11S289.76,171.13,284.24,168.92Z" style="opacity: 0.2; transform-origin: 280.69px 181.784px;" class="animable"></path></g><g id="eluqw6j3ex6kb"><path d="M135.34,125.9s-4.41.55-3.86,5.52-2.21,5.51-11,6.62-14.34,2.2-19.3,6.06l-5,3.86h0L89,159.54s15.44-16.54,28.12-17.09,13.79,2.76,13.79,4.41-.55,8.82-.55,8.82a46.47,46.47,0,0,1,8.27-13.78Z" style="opacity: 0.2; transform-origin: 113.815px 142.72px;" class="animable"></path></g><path d="M92.71,142.52s-4,4.63-6.65,8.1A31,31,0,0,0,82.29,157S71.59,163.93,69,171.75s-4,12.73-2.89,20.54a70.46,70.46,0,0,0,4,14.76s.29,7.52,12.44,12.15,47.75,18.23,49.49,19.68,14.76,10.42,14.76,10.42l2.89,14.76s1.74,18.23,4.63,23.15,7.52,17.94,16.78,22.86S192,314.7,199.2,313s12.16-4,28.65-9.55,22.57-6.94,23.73-7.23,40.22,8.1,50.93,6.07,15.05-6.07,15.05-6.07,5.5,10.42,13.6,15.34,29.81,15.91,32.41,17.94,5.79,8.39,13.31,7.23,11.58-11,12.45-12.15S400.9,310.36,404.08,304a57.11,57.11,0,0,0,4.34-11.28s9.84-10.13,7.82-27.21-4.34-31.54-8.68-44-6.66-17.08-6.66-17.08S398,177,384.7,164.22s-21.13-16.49-21.13-16.49-9.26-14.18-22-19.39-31.83-20-40.8-23.44S286.6,104,286.6,104s-24.6-7.81-42.83-7.81H225.54s-17.94-3.76-36.18,0-37.33.87-50.64,6.65-27.49,19.39-27.49,19.39S96.18,131.81,92.71,142.52Z" style="fill: none; stroke: rgb(38, 50, 56); stroke-miterlimit: 10; transform-origin: 241.12px 215.695px;" id="elrfhcjdgvrr" class="animable"></path><path d="M165.28,225.79s0-5,8.17-6.6a24.67,24.67,0,0,1,14.13,1.26S167.48,223.28,165.28,225.79Z" style="fill: rgb(255, 255, 255); transform-origin: 176.43px 222.237px;" id="ely6evww4d58o" class="animable"></path><path d="M208.63,222.33s0-5,8.17-6.59A24.67,24.67,0,0,1,230.94,217S210.83,219.82,208.63,222.33Z" style="fill: rgb(255, 255, 255); transform-origin: 219.785px 218.782px;" id="elorwxu5jnfc" class="animable"></path><path d="M240.68,214.79s0-5,8.17-6.6A24.72,24.72,0,0,1,263,209.45S242.88,212.28,240.68,214.79Z" style="fill: rgb(255, 255, 255); transform-origin: 251.84px 211.237px;" id="elz9qryrqlok" class="animable"></path><path d="M232.19,162.59s-2.45-4.39,3.92-9.74a24.82,24.82,0,0,1,13-5.78S232.89,159.33,232.19,162.59Z" style="fill: rgb(255, 255, 255); transform-origin: 240.418px 154.83px;" id="el2tyzbufojnm" class="animable"></path><path d="M200.45,150s-2.44-4.39,3.93-9.73a24.74,24.74,0,0,1,13-5.79S201.15,146.76,200.45,150Z" style="fill: rgb(255, 255, 255); transform-origin: 208.685px 142.24px;" id="elpxta1rimjud" class="animable"></path><path d="M133.56,192.07s-2.44-4.39,3.93-9.74a24.67,24.67,0,0,1,13-5.78S134.26,188.8,133.56,192.07Z" style="fill: rgb(255, 255, 255); transform-origin: 141.795px 184.31px;" id="el3yqvlejtxoh" class="animable"></path><path d="M156,179.65s0-5,8.24-6.5a24.66,24.66,0,0,1,14.12,1.42S158.18,177.16,156,179.65Z" style="fill: rgb(255, 255, 255); transform-origin: 167.18px 176.174px;" id="eliwh4ap283x" class="animable"></path><path d="M298,151.2s4.32-6.22,19.77,1.62,23.33,18.49,23.33,18.49S303.94,150.72,298,151.2Z" style="fill: rgb(255, 255, 255); transform-origin: 319.55px 160.085px;" id="el9xk10to94hh" class="animable"></path><path d="M139.79,133.88s-.8-5,7-7.81a24.74,24.74,0,0,1,14.16-1S141.56,131.05,139.79,133.88Z" style="fill: rgb(255, 255, 255); transform-origin: 150.358px 129.176px;" id="els9km80ftasg" class="animable"></path><path d="M264.39,120.29s-.8-5,7-7.82a24.65,24.65,0,0,1,14.15-1S266.16,117.46,264.39,120.29Z" style="fill: rgb(255, 255, 255); transform-origin: 274.953px 115.579px;" id="elx19uo9soksd" class="animable"></path><path d="M224.7,120.18s-.8-5,7-7.81a24.71,24.71,0,0,1,14.15-1S226.47,117.35,224.7,120.18Z" style="fill: rgb(255, 255, 255); transform-origin: 235.263px 115.476px;" id="els036xi1v6yd" class="animable"></path><g id="eltsrnw7h73mf"><path d="M287.77,305s15.38,23.32,32.17,30.77,14.45.47,6.52-5.59-26.11-23.31-18.65-19.12,12.13,9.33,28,17.72,27,6.53,27,6.53-.47,8.86-3.73,13.52-7.93,5.13-12.59,4.2-15.85-3.27-15.85-3.27,1.86,3.27,7.92,6.53S354,360.49,354,360.49s-.7,3.94-9.21,8-16-2-24.36-7.56-23.31-22.84-21.91-17.72,8.86,12.59,14.45,17.72,21,13.06,21,13.06-9.32-.47-13.05-.94.41,2.49-5.63-1.08-13.49-11.51-19.55-19.9-8.86-6.52-4.66-1.4,8.86,13.52,11.19,16.79,5.13,5.13,5.13,7,5.13.47,0,1.87-14.92-7-20.05-14.92-11.19-30.77-8.39-16.79S286.83,370.29,291,374a36.5,36.5,0,0,0,7,5.12s-7.46-.93-12.12-7-11.19-28.44-11.19-37.76.93-14.46,3.26-11.66,5.13,12.59,6.53,11.66-5.13-24.71-2.33-20.52,21.45,31.24,18.18,22.38-10.25-18.18-12.12-23.31S287.77,305,287.77,305Z" style="opacity: 0.35; transform-origin: 318.75px 342.06px;" class="animable"></path></g><path d="M149.67,242.84s-.55-6.52,1.08-8.69a4.39,4.39,0,0,1,3.81-1.91s-3.26-9,10.87-14.94,36.69-1.09,36.69-1.09a83.93,83.93,0,0,1,21.2-3.8c10.6-.28,15.49-3,17.39-4.63s8.7-6.25,20.93-6.25,20.11.28,20.11.28,9.79-12.23,11.42-20.12,8.15-13.31,8.15-13.31" style="fill: none; stroke: rgb(38, 50, 56); stroke-linecap: round; stroke-linejoin: round; stroke-width: 2px; transform-origin: 225.45px 205.61px;" id="elbnjmwzhqh15" class="animable"></path><path d="M285.28,169.74s7.89,5.43,7.89,11.95" style="fill: none; stroke: rgb(38, 50, 56); stroke-linecap: round; stroke-linejoin: round; stroke-width: 2px; transform-origin: 289.225px 175.715px;" id="eljgs0r8ee7e" class="animable"></path><path d="M266.26,163.49s-12.77-1.09-13.86,14.4,7.34,23.1,9.24,23.64" style="fill: none; stroke: rgb(38, 50, 56); stroke-linecap: round; stroke-linejoin: round; stroke-width: 2px; transform-origin: 259.282px 182.502px;" id="elcixj1gf0mqp" class="animable"></path><path d="M276.68,152.05c11.46-9.46,20.77-13.2,28.17-11.67,7.88,1.63,22.56,9,29.63,12.78s12.5,7.34,14.4,11.41l1.9,4.08" style="fill: none; stroke: rgb(38, 50, 56); stroke-linecap: round; stroke-linejoin: round; stroke-width: 2px; transform-origin: 313.73px 154.349px;" id="elf7fk5a4v0j" class="animable"></path><path d="M268.43,173.54s-5-6.66,2.14-15.61" style="fill: none; stroke: rgb(38, 50, 56); stroke-linecap: round; stroke-linejoin: round; stroke-width: 2px; transform-origin: 268.649px 165.735px;" id="elhyh6mrpvkqk" class="animable"></path><path d="M299.15,139.3,298.33,126s3.53-1.09-.54-9.51-16.31-10.33-20.11-9.51-10.06,1.35-13.87,6.52a19.3,19.3,0,0,0-4.07,10.6c0,.81-4.08,5.16-5.71,10a64,64,0,0,0-2.17,7.88s-10.06-3-22,12.23" style="fill: none; stroke: rgb(38, 50, 56); stroke-linecap: round; stroke-linejoin: round; stroke-width: 2px; transform-origin: 264.805px 130.508px;" id="elavpmumoqr7" class="animable"></path><path d="M226.85,159.68s-4.62,4.35-6.79,16.58-2.45,17.66-6,23.92-6,11.14-.27,13" style="fill: none; stroke: rgb(38, 50, 56); stroke-linecap: round; stroke-linejoin: round; stroke-width: 2px; transform-origin: 218.611px 186.43px;" id="el9hrmuyjse6" class="animable"></path><path d="M225.49,126.25s-23.64,8.15-28.8,19-6.26,22-5.17,27.17a37.66,37.66,0,0,1,.6,4.45" style="fill: none; stroke: rgb(38, 50, 56); stroke-linecap: round; stroke-linejoin: round; stroke-width: 2px; transform-origin: 208.314px 151.56px;" id="elbuszqsogg6" class="animable"></path><path d="M190.16,167.83s-3.53-4.07-7.34,6-8.69,22.29-11.14,28.27-1.09,8.69,0,9.78" style="fill: none; stroke: rgb(38, 50, 56); stroke-linecap: round; stroke-linejoin: round; stroke-width: 2px; transform-origin: 180.233px 189.448px;" id="el4y7mxt57xbb" class="animable"></path><path d="M182.82,173.81s-7.88-5.7-14.94-5.43A21.66,21.66,0,0,0,154,174.63a17.65,17.65,0,0,0-16.31,3.53c-7.88,6.52-8.43,14.13-8.43,14.13s-4.07-8.42-12.77-.54-.54,16.58,8.15,20.38,29.15,13.35,29.15,13.35" style="fill: none; stroke: rgb(38, 50, 56); stroke-linecap: round; stroke-linejoin: round; stroke-width: 2px; transform-origin: 147.796px 196.925px;" id="elqrwaighym5" class="animable"></path><path d="M129.28,192.29s7.44,9.78,14.63,13.89" style="fill: none; stroke: rgb(38, 50, 56); stroke-linecap: round; stroke-linejoin: round; stroke-width: 2px; transform-origin: 136.595px 199.235px;" id="elki54dfvc6cg" class="animable"></path><path d="M154,174.63s-.35,17.17,3.25,27.44" style="fill: none; stroke: rgb(38, 50, 56); stroke-linecap: round; stroke-linejoin: round; stroke-width: 2px; transform-origin: 155.62px 188.35px;" id="elbtkc5nexil" class="animable"></path><path d="M129.56,155.6s3-5.7,1.63-10.32-20.66-5.17-29.36,1.9-12.5,9.51-16.57,17.39-3.81,13.32-3.81,13.32-4.62.54-7.06,7.07" style="fill: none; stroke: rgb(38, 50, 56); stroke-linecap: round; stroke-linejoin: round; stroke-width: 2px; transform-origin: 102.969px 163.396px;" id="eli8xc3ma4nu9" class="animable"></path><path d="M113.79,161.58s-2.71-1.08-10.6,3.26-8.69,9.52-9,13.86a17.82,17.82,0,0,0,1.63,8.16s6.79,3.8,12.23,4.07,8.42.28,9.24-3.53-7.61-13.86-7.61-13.86" style="fill: none; stroke: rgb(38, 50, 56); stroke-linecap: round; stroke-linejoin: round; stroke-width: 2px; transform-origin: 105.761px 176.247px;" id="el9p88zp5g7nj" class="animable"></path><path d="M85.53,182s5.71,5.7,10.33,4.89" style="fill: none; stroke: rgb(38, 50, 56); stroke-linecap: round; stroke-linejoin: round; stroke-width: 2px; transform-origin: 90.695px 184.484px;" id="eln8d0ep52thd" class="animable"></path><path d="M130.64,158.32s.55-14.13,10.87-16,29.63,5.43,29.63,5.43" style="fill: none; stroke: rgb(38, 50, 56); stroke-linecap: round; stroke-linejoin: round; stroke-width: 2px; transform-origin: 150.89px 150.167px;" id="elevuj659xwb" class="animable"></path><path d="M138.8,143.1s-.55-7.34-2.72-12.23-.82-7.06,3.53-8.15,12.78-1.36,18.75-4.35" style="fill: none; stroke: rgb(38, 50, 56); stroke-linecap: round; stroke-linejoin: round; stroke-width: 2px; transform-origin: 146.71px 130.735px;" id="el3vbomfc56yl" class="animable"></path><path d="M195.6,108.86s-11.14,2.72-10.33,13.86S196.14,139.3,197,140.93" style="fill: none; stroke: rgb(38, 50, 56); stroke-linecap: round; stroke-linejoin: round; stroke-width: 2px; transform-origin: 191.114px 124.895px;" id="eldd6k6doed1v" class="animable"></path><path d="M219,129s-1.63-8.43,3.53-13.59,6-9.78,25.28-7.61,17.12,2.17,17.12,2.17" style="fill: none; stroke: rgb(38, 50, 56); stroke-linecap: round; stroke-linejoin: round; stroke-width: 2px; transform-origin: 241.879px 118.126px;" id="elpscyp0cuq0g" class="animable"></path><path d="M230.66,107.77a118.88,118.88,0,0,0-19-2.72c-10-.54-36.14,2.72-46.74,4.08s-26.91,2.45-39.14,8.42S110,126.8,110,126.8" style="fill: none; stroke: rgb(38, 50, 56); stroke-linecap: round; stroke-linejoin: round; stroke-width: 2px; transform-origin: 170.33px 115.895px;" id="elaz05pw26mwr" class="animable"></path><path d="M133.69,114.16s-.33-2.86,5.11-8" style="fill: none; stroke: rgb(38, 50, 56); stroke-linecap: round; stroke-linejoin: round; stroke-width: 2px; transform-origin: 136.243px 110.16px;" id="elp5csuco3nc8" class="animable"></path><path d="M320.42,207.55c3.66-8.44,5.07-16.69,7.53-21.24" style="fill: none; stroke: rgb(38, 50, 56); stroke-linecap: round; stroke-linejoin: round; stroke-width: 2px; transform-origin: 324.185px 196.93px;" id="el0qm2w9tdmx6m" class="animable"></path><path d="M208,242.61c4.65-.45,9.61-.72,11.24-.31,3.26.82,15.77,4.62,22.56,1.09S259.19,238,259.19,238s2.72.55,10.88-3.26,15.21-8.15,16-8.42,19,3.53,28-7.89c.8-1,1.54-2,2.23-3.1" style="fill: none; stroke: rgb(38, 50, 56); stroke-linecap: round; stroke-linejoin: round; stroke-width: 2px; transform-origin: 262.15px 230.098px;" id="elm36odmfbml" class="animable"></path><path d="M160.27,238.22s10.32,11.42,14.13,10.88c3-.43,15.89-3.08,21.54-4.43" style="fill: none; stroke: rgb(38, 50, 56); stroke-linecap: round; stroke-linejoin: round; stroke-width: 2px; transform-origin: 178.105px 243.669px;" id="elupb8x1xg65o" class="animable"></path><path d="M180.65,247.74s-5.44,10.87-.54,25.82A121.15,121.15,0,0,0,191,298" style="fill: none; stroke: rgb(38, 50, 56); stroke-linecap: round; stroke-linejoin: round; stroke-width: 2px; transform-origin: 184.532px 272.87px;" id="elt0vkmt3k3y" class="animable"></path><path d="M231.14,271.73c2.65.6,4.48.77,8.49-1.16,7.88-3.81,14.4-6,19.29-6s9.24,3.53,16.31,4.34,24.46-1.35,28,2.18,7.61,13.59,11.69,15.22" style="fill: none; stroke: rgb(38, 50, 56); stroke-linecap: round; stroke-linejoin: round; stroke-width: 2px; transform-origin: 273.03px 275.44px;" id="el3r6tf68kj25" class="animable"></path><path d="M194.24,279.26s10.33-8.69,24.19-9c1.81,0,3.38,0,4.75.11" style="fill: none; stroke: rgb(38, 50, 56); stroke-linecap: round; stroke-linejoin: round; stroke-width: 2px; transform-origin: 208.71px 274.76px;" id="elbuztg8kj7d" class="animable"></path><path d="M317.35,268.66a79.07,79.07,0,0,0-9.24,5.17s17.4,9.78,17.67,16-12.5,6.25-12.5,6.25S310,297.34,290.22,291s-23.56-8.92-39.49-6.37-16.55,3.82-25.47,8.91" style="fill: none; stroke: rgb(38, 50, 56); stroke-linecap: round; stroke-linejoin: round; stroke-width: 2px; transform-origin: 275.522px 282.421px;" id="elmwl6piod7g9" class="animable"></path><path d="M362.29,279.38c7.12.26,13.33-.18,14.58,2.33a10.94,10.94,0,0,1,1.36,6.52s24.19,10.6,23.65,14.13" style="fill: none; stroke: rgb(38, 50, 56); stroke-linecap: round; stroke-linejoin: round; stroke-width: 2px; transform-origin: 382.089px 290.87px;" id="el7rm89xpplil" class="animable"></path><path d="M281.75,256.43s13.05-4.89,23.37-5.16,32.07,7.34,33.71,12,1.63,11.68,12.23,14.67c.92.26,1.87.48,2.82.66" style="fill: none; stroke: rgb(38, 50, 56); stroke-linecap: round; stroke-linejoin: round; stroke-width: 2px; transform-origin: 317.815px 264.932px;" id="elsnyd3zjqzk" class="animable"></path><path d="M401.61,295.3s5.16-3,2.17-9S392.91,269.75,381.22,263s-21.47-6.8-21.47-6.8,1.9-14.67,0-22S357,222.46,357,222.46" style="fill: none; stroke: rgb(38, 50, 56); stroke-linecap: round; stroke-linejoin: round; stroke-width: 2px; transform-origin: 380.856px 258.88px;" id="el9cd4f7jssq9" class="animable"></path><path d="M360.84,239.85s3.53-7.06,9.24-10" style="fill: none; stroke: rgb(38, 50, 56); stroke-linecap: round; stroke-linejoin: round; stroke-width: 2px; transform-origin: 365.46px 234.85px;" id="eln1wgq2dbul8" class="animable"></path><path d="M338.28,217s1.9,13.31,1.63,15.21-4.35,4.35-6,12.23-3.53,11.15-3.53,11.15,1.09,2.17,5.44,1.36,12.5-12,12.5-12" style="fill: none; stroke: rgb(38, 50, 56); stroke-linecap: round; stroke-linejoin: round; stroke-width: 2px; transform-origin: 339.35px 237.066px;" id="el77uadr9ye2" class="animable"></path><path d="M399.09,250.39c-.34,4.68-1.42,8.62-3.19,10.66a26.09,26.09,0,0,0-4.89,9" style="fill: none; stroke: rgb(38, 50, 56); stroke-linecap: round; stroke-linejoin: round; stroke-width: 2px; transform-origin: 395.05px 260.22px;" id="elnft79jeirt" class="animable"></path><path d="M350.08,207c-3-2.3-4.92-6.72-1.2-11.43C354,189,363,183.87,363.83,182.78s-.27-7.61,3.26-9.24,13.86,5.16,18.75,12.23,6,14.95,5.44,18.48,4.07,20.93,6.52,31a48.83,48.83,0,0,1,1.21,7.5" style="fill: none; stroke: rgb(38, 50, 56); stroke-linecap: round; stroke-linejoin: round; stroke-width: 2px; transform-origin: 372.92px 208.023px;" id="el2072nipvq8g" class="animable"></path><path d="M379.32,203.71s-2.17-3.53-7.07-.82a57.29,57.29,0,0,1-13.69,5.28" style="fill: none; stroke: rgb(38, 50, 56); stroke-linecap: round; stroke-linejoin: round; stroke-width: 2px; transform-origin: 368.94px 205.018px;" id="el2noot8d66dl" class="animable"></path><path d="M381,208.6s3.81,12.23,4.62,22.29S384.21,245,384.21,245l-6-.27" style="fill: none; stroke: rgb(38, 50, 56); stroke-linecap: round; stroke-linejoin: round; stroke-width: 2px; transform-origin: 382.004px 226.8px;" id="eliq0ucxfbde" class="animable"></path><line x1="384.21" y1="245.02" x2="391.28" y2="249.1" style="fill: none; stroke: rgb(38, 50, 56); stroke-linecap: round; stroke-linejoin: round; stroke-width: 2px; transform-origin: 387.745px 247.06px;" id="el9gn7andr7t9" class="animable"></line><path d="M298.06,132s.81-13.86,17.12-9.79,15.76,28.54,15.76,28.54" style="fill: none; stroke: rgb(38, 50, 56); stroke-linecap: round; stroke-linejoin: round; stroke-width: 2px; transform-origin: 314.501px 136.106px;" id="elqp83598afp" class="animable"></path><path d="M328.77,139.57s4.35-4.62,13.32-3.26,12.77,4.89,12.77,4.89" style="fill: none; stroke: rgb(38, 50, 56); stroke-linecap: round; stroke-linejoin: round; stroke-width: 2px; transform-origin: 341.815px 138.63px;" id="eltjl0wlurnlo" class="animable"></path><path d="M347.79,141.47l13,12a13,13,0,0,1,6.25-.82" style="fill: none; stroke: rgb(38, 50, 56); stroke-linecap: round; stroke-linejoin: round; stroke-width: 2px; transform-origin: 357.415px 147.47px;" id="elzis3ceo3qu" class="animable"></path><path d="M92.71,142.52s-4,4.63-6.65,8.1A31,31,0,0,0,82.29,157S71.59,163.93,69,171.75s-4,12.73-2.89,20.54a70.46,70.46,0,0,0,4,14.76s.29,7.52,12.44,12.15,47.75,18.23,49.49,19.68,14.76,10.42,14.76,10.42l2.89,14.76s1.74,18.23,4.63,23.15,7.52,17.94,16.78,22.86S192,314.7,199.2,313s12.16-4,28.65-9.55,22.57-6.94,23.73-7.23,40.22,8.1,50.93,6.07,15.05-6.07,15.05-6.07,5.5,10.42,13.6,15.34,29.81,15.91,32.41,17.94,5.79,8.39,13.31,7.23,11.58-11,12.45-12.15S400.9,310.36,404.08,304a57.11,57.11,0,0,0,4.34-11.28s9.84-10.13,7.82-27.21-4.34-31.54-8.68-44-6.66-17.08-6.66-17.08S398,177,384.7,164.22s-21.13-16.49-21.13-16.49-9.26-14.18-22-19.39-31.83-20-40.8-23.44S286.6,104,286.6,104s-24.6-7.81-42.83-7.81H225.54s-17.94-3.76-36.18,0-37.33.87-50.64,6.65-27.49,19.39-27.49,19.39S96.18,131.81,92.71,142.52Z" style="fill: none; stroke: rgb(38, 50, 56); stroke-miterlimit: 10; stroke-width: 2px; transform-origin: 241.12px 215.695px;" id="el2r0ndv5eljp" class="animable"></path></g><defs>     <filter id="active" height="200%">         <feMorphology in="SourceAlpha" result="DILATED" operator="dilate" radius="2"></feMorphology>                <feFlood flood-color="#32DFEC" flood-opacity="1" result="PINK"></feFlood>        <feComposite in="PINK" in2="DILATED" operator="in" result="OUTLINE"></feComposite>        <feMerge>            <feMergeNode in="OUTLINE"></feMergeNode>            <feMergeNode in="SourceGraphic"></feMergeNode>        </feMerge>    </filter>    <filter id="hover" height="200%">        <feMorphology in="SourceAlpha" result="DILATED" operator="dilate" radius="2"></feMorphology>                <feFlood flood-color="#ff0000" flood-opacity="0.5" result="PINK"></feFlood>        <feComposite in="PINK" in2="DILATED" operator="in" result="OUTLINE"></feComposite>        <feMerge>            <feMergeNode in="OUTLINE"></feMergeNode>            <feMergeNode in="SourceGraphic"></feMergeNode>        </feMerge>            <feColorMatrix type="matrix" values="0   0   0   0   0                0   1   0   0   0                0   0   0   0   0                0   0   0   1   0 "></feColorMatrix>    </filter></defs></svg>